<mxfile host="Electron" modified="2023-10-09T06:03:24.695Z" agent="Mozilla/5.0 (Windows NT 10.0; Win64; x64) AppleWebKit/537.36 (KHTML, like Gecko) draw.io/21.6.8 Chrome/114.0.5735.289 Electron/25.5.0 Safari/537.36" etag="1577YzNEVhfh551lWJVy" version="21.6.8" type="device">
  <diagram id="C5RBs43oDa-KdzZeNtuy" name="Design For Attendence">
    <mxGraphModel dx="2485" dy="828" grid="1" gridSize="10" guides="1" tooltips="1" connect="1" arrows="1" fold="1" page="1" pageScale="1" pageWidth="827" pageHeight="1169" math="0" shadow="0">
      <root>
        <mxCell id="WIyWlLk6GJQsqaUBKTNV-0" />
        <mxCell id="WIyWlLk6GJQsqaUBKTNV-1" parent="WIyWlLk6GJQsqaUBKTNV-0" />
        <mxCell id="WIyWlLk6GJQsqaUBKTNV-2" value="" style="rounded=0;html=1;jettySize=auto;orthogonalLoop=1;fontSize=11;endArrow=block;endFill=0;endSize=8;strokeWidth=1;shadow=0;labelBackgroundColor=none;edgeStyle=orthogonalEdgeStyle;entryX=0;entryY=0.5;entryDx=0;entryDy=0;" parent="WIyWlLk6GJQsqaUBKTNV-1" source="WIyWlLk6GJQsqaUBKTNV-3" target="DpIOakn2oPwRYrwLk3A_-0" edge="1">
          <mxGeometry relative="1" as="geometry" />
        </mxCell>
        <mxCell id="WIyWlLk6GJQsqaUBKTNV-3" value="Live Image capture from Camera (Standard Input)" style="rounded=1;whiteSpace=wrap;html=1;fontSize=12;glass=0;strokeWidth=1;shadow=0;" parent="WIyWlLk6GJQsqaUBKTNV-1" vertex="1">
          <mxGeometry x="20" y="217" width="130" height="50" as="geometry" />
        </mxCell>
        <mxCell id="WIyWlLk6GJQsqaUBKTNV-5" value="No" style="edgeStyle=orthogonalEdgeStyle;rounded=0;html=1;jettySize=auto;orthogonalLoop=1;fontSize=11;endArrow=block;endFill=0;endSize=8;strokeWidth=1;shadow=0;labelBackgroundColor=none;" parent="WIyWlLk6GJQsqaUBKTNV-1" source="WIyWlLk6GJQsqaUBKTNV-6" target="WIyWlLk6GJQsqaUBKTNV-7" edge="1">
          <mxGeometry y="10" relative="1" as="geometry">
            <mxPoint as="offset" />
          </mxGeometry>
        </mxCell>
        <mxCell id="DpIOakn2oPwRYrwLk3A_-7" style="edgeStyle=orthogonalEdgeStyle;rounded=0;orthogonalLoop=1;jettySize=auto;html=1;entryX=0.5;entryY=0;entryDx=0;entryDy=0;" parent="WIyWlLk6GJQsqaUBKTNV-1" source="WIyWlLk6GJQsqaUBKTNV-6" target="DpIOakn2oPwRYrwLk3A_-10" edge="1">
          <mxGeometry relative="1" as="geometry" />
        </mxCell>
        <mxCell id="DpIOakn2oPwRYrwLk3A_-9" value="Yes" style="edgeLabel;html=1;align=center;verticalAlign=middle;resizable=0;points=[];" parent="DpIOakn2oPwRYrwLk3A_-7" vertex="1" connectable="0">
          <mxGeometry x="-0.5742" y="-3" relative="1" as="geometry">
            <mxPoint y="-7" as="offset" />
          </mxGeometry>
        </mxCell>
        <mxCell id="WIyWlLk6GJQsqaUBKTNV-6" value="If the encoded image resembles to list of labeled images in database&amp;nbsp;" style="rhombus;whiteSpace=wrap;html=1;shadow=0;fontFamily=Helvetica;fontSize=12;align=center;strokeWidth=1;spacing=6;spacingTop=-4;" parent="WIyWlLk6GJQsqaUBKTNV-1" vertex="1">
          <mxGeometry x="530" y="330" width="172.5" height="150" as="geometry" />
        </mxCell>
        <mxCell id="DpIOakn2oPwRYrwLk3A_-35" style="edgeStyle=orthogonalEdgeStyle;rounded=0;orthogonalLoop=1;jettySize=auto;html=1;entryX=1;entryY=0.5;entryDx=0;entryDy=0;" parent="WIyWlLk6GJQsqaUBKTNV-1" source="WIyWlLk6GJQsqaUBKTNV-7" target="DpIOakn2oPwRYrwLk3A_-28" edge="1">
          <mxGeometry relative="1" as="geometry">
            <Array as="points">
              <mxPoint x="616" y="920" />
            </Array>
          </mxGeometry>
        </mxCell>
        <mxCell id="WIyWlLk6GJQsqaUBKTNV-7" value="Alert the respective authorities" style="rounded=1;whiteSpace=wrap;html=1;fontSize=12;glass=0;strokeWidth=1;shadow=0;" parent="WIyWlLk6GJQsqaUBKTNV-1" vertex="1">
          <mxGeometry x="556.25" y="710" width="120" height="40" as="geometry" />
        </mxCell>
        <mxCell id="WIyWlLk6GJQsqaUBKTNV-8" value="No" style="rounded=0;html=1;jettySize=auto;orthogonalLoop=1;fontSize=11;endArrow=block;endFill=0;endSize=8;strokeWidth=1;shadow=0;labelBackgroundColor=none;edgeStyle=orthogonalEdgeStyle;" parent="WIyWlLk6GJQsqaUBKTNV-1" source="WIyWlLk6GJQsqaUBKTNV-10" target="WIyWlLk6GJQsqaUBKTNV-11" edge="1">
          <mxGeometry x="0.3333" y="20" relative="1" as="geometry">
            <mxPoint as="offset" />
          </mxGeometry>
        </mxCell>
        <mxCell id="WIyWlLk6GJQsqaUBKTNV-9" value="Yes" style="edgeStyle=orthogonalEdgeStyle;rounded=0;html=1;jettySize=auto;orthogonalLoop=1;fontSize=11;endArrow=block;endFill=0;endSize=8;strokeWidth=1;shadow=0;labelBackgroundColor=none;" parent="WIyWlLk6GJQsqaUBKTNV-1" source="WIyWlLk6GJQsqaUBKTNV-10" target="WIyWlLk6GJQsqaUBKTNV-12" edge="1">
          <mxGeometry y="10" relative="1" as="geometry">
            <mxPoint as="offset" />
          </mxGeometry>
        </mxCell>
        <mxCell id="WIyWlLk6GJQsqaUBKTNV-10" value="Check if the attendence is already marked" style="rhombus;whiteSpace=wrap;html=1;shadow=0;fontFamily=Helvetica;fontSize=12;align=center;strokeWidth=1;spacing=6;spacingTop=-4;" parent="WIyWlLk6GJQsqaUBKTNV-1" vertex="1">
          <mxGeometry x="137.5" y="540" width="185" height="130" as="geometry" />
        </mxCell>
        <mxCell id="DpIOakn2oPwRYrwLk3A_-29" style="edgeStyle=orthogonalEdgeStyle;rounded=0;orthogonalLoop=1;jettySize=auto;html=1;" parent="WIyWlLk6GJQsqaUBKTNV-1" source="WIyWlLk6GJQsqaUBKTNV-11" target="DpIOakn2oPwRYrwLk3A_-28" edge="1">
          <mxGeometry relative="1" as="geometry" />
        </mxCell>
        <mxCell id="WIyWlLk6GJQsqaUBKTNV-11" value="Update the attendence" style="rounded=1;whiteSpace=wrap;html=1;fontSize=12;glass=0;strokeWidth=1;shadow=0;" parent="WIyWlLk6GJQsqaUBKTNV-1" vertex="1">
          <mxGeometry x="170" y="750" width="120" height="40" as="geometry" />
        </mxCell>
        <mxCell id="DpIOakn2oPwRYrwLk3A_-32" style="edgeStyle=orthogonalEdgeStyle;rounded=0;orthogonalLoop=1;jettySize=auto;html=1;entryX=1;entryY=0.5;entryDx=0;entryDy=0;" parent="WIyWlLk6GJQsqaUBKTNV-1" source="WIyWlLk6GJQsqaUBKTNV-12" target="DpIOakn2oPwRYrwLk3A_-28" edge="1">
          <mxGeometry relative="1" as="geometry" />
        </mxCell>
        <mxCell id="WIyWlLk6GJQsqaUBKTNV-12" value="Do Nothing" style="rounded=1;whiteSpace=wrap;html=1;fontSize=12;glass=0;strokeWidth=1;shadow=0;" parent="WIyWlLk6GJQsqaUBKTNV-1" vertex="1">
          <mxGeometry x="400" y="710" width="120" height="40" as="geometry" />
        </mxCell>
        <mxCell id="DpIOakn2oPwRYrwLk3A_-1" style="edgeStyle=orthogonalEdgeStyle;rounded=0;orthogonalLoop=1;jettySize=auto;html=1;entryX=0;entryY=0.5;entryDx=0;entryDy=0;" parent="WIyWlLk6GJQsqaUBKTNV-1" source="DpIOakn2oPwRYrwLk3A_-0" target="DpIOakn2oPwRYrwLk3A_-2" edge="1">
          <mxGeometry relative="1" as="geometry" />
        </mxCell>
        <mxCell id="DpIOakn2oPwRYrwLk3A_-0" value="Analyse the input video frame by frame and detect faces and encode them" style="rounded=1;whiteSpace=wrap;html=1;" parent="WIyWlLk6GJQsqaUBKTNV-1" vertex="1">
          <mxGeometry x="310" y="212" width="120" height="60" as="geometry" />
        </mxCell>
        <mxCell id="DpIOakn2oPwRYrwLk3A_-6" style="edgeStyle=orthogonalEdgeStyle;rounded=0;orthogonalLoop=1;jettySize=auto;html=1;exitX=0.5;exitY=1;exitDx=0;exitDy=0;" parent="WIyWlLk6GJQsqaUBKTNV-1" source="DpIOakn2oPwRYrwLk3A_-2" target="WIyWlLk6GJQsqaUBKTNV-6" edge="1">
          <mxGeometry relative="1" as="geometry">
            <mxPoint x="480" y="382" as="targetPoint" />
          </mxGeometry>
        </mxCell>
        <mxCell id="DpIOakn2oPwRYrwLk3A_-2" value="Enter in the logs about the current status after frame is analyzed" style="rounded=1;whiteSpace=wrap;html=1;" parent="WIyWlLk6GJQsqaUBKTNV-1" vertex="1">
          <mxGeometry x="556.25" y="212" width="120" height="60" as="geometry" />
        </mxCell>
        <mxCell id="DpIOakn2oPwRYrwLk3A_-11" style="edgeStyle=orthogonalEdgeStyle;rounded=0;orthogonalLoop=1;jettySize=auto;html=1;entryX=0.5;entryY=0;entryDx=0;entryDy=0;" parent="WIyWlLk6GJQsqaUBKTNV-1" source="DpIOakn2oPwRYrwLk3A_-10" target="WIyWlLk6GJQsqaUBKTNV-10" edge="1">
          <mxGeometry relative="1" as="geometry" />
        </mxCell>
        <mxCell id="DpIOakn2oPwRYrwLk3A_-10" value="Encrypt the details and send call Attendence API" style="rounded=1;whiteSpace=wrap;html=1;" parent="WIyWlLk6GJQsqaUBKTNV-1" vertex="1">
          <mxGeometry x="290" y="430" width="120" height="60" as="geometry" />
        </mxCell>
        <mxCell id="DpIOakn2oPwRYrwLk3A_-12" value="&lt;font style=&quot;&quot;&gt;&lt;span style=&quot;font-size: 24px;&quot;&gt;Design for Project Semester 7&lt;/span&gt;&lt;br&gt;&lt;span style=&quot;font-size: 24px;&quot;&gt;Face Recognition Attendence System Using Face Encoding Algorithm&lt;/span&gt;&lt;br&gt;&lt;div style=&quot;text-align: right;&quot;&gt;&lt;span style=&quot;font-size: 24px;&quot;&gt;-Manish Kumar, Yuvraj Singh&lt;/span&gt;&lt;/div&gt;&lt;/font&gt;" style="text;html=1;align=center;verticalAlign=middle;resizable=0;points=[];autosize=1;strokeColor=none;fillColor=none;" parent="WIyWlLk6GJQsqaUBKTNV-1" vertex="1">
          <mxGeometry x="-799" y="20" width="770" height="100" as="geometry" />
        </mxCell>
        <mxCell id="DpIOakn2oPwRYrwLk3A_-13" value="&lt;font style=&quot;font-size: 18px;&quot;&gt;Total flow of Project&lt;/font&gt;" style="swimlane;html=1;startSize=30;horizontal=0;childLayout=flowLayout;flowOrientation=west;resizable=0;interRankCellSpacing=50;containerType=tree;fontSize=12;" parent="WIyWlLk6GJQsqaUBKTNV-1" vertex="1">
          <mxGeometry x="-760" y="170" width="620" height="219" as="geometry" />
        </mxCell>
        <mxCell id="DpIOakn2oPwRYrwLk3A_-14" value="&lt;font style=&quot;font-size: 18px;&quot;&gt;Start&lt;/font&gt;" style="whiteSpace=wrap;html=1;" parent="DpIOakn2oPwRYrwLk3A_-13" vertex="1">
          <mxGeometry x="50" y="79.625" width="120" height="55" as="geometry" />
        </mxCell>
        <mxCell id="DpIOakn2oPwRYrwLk3A_-15" value="&lt;font style=&quot;font-size: 18px;&quot;&gt;Attendence Marking Procedure&lt;/font&gt;" style="whiteSpace=wrap;html=1;" parent="DpIOakn2oPwRYrwLk3A_-13" vertex="1">
          <mxGeometry x="222.125" y="20" width="155.75" height="70" as="geometry" />
        </mxCell>
        <mxCell id="DpIOakn2oPwRYrwLk3A_-16" value="" style="html=1;rounded=1;curved=0;sourcePerimeterSpacing=0;targetPerimeterSpacing=0;startSize=6;endSize=6;noEdgeStyle=1;orthogonal=1;" parent="DpIOakn2oPwRYrwLk3A_-13" source="DpIOakn2oPwRYrwLk3A_-14" target="DpIOakn2oPwRYrwLk3A_-15" edge="1">
          <mxGeometry relative="1" as="geometry">
            <Array as="points">
              <mxPoint x="182" y="95.875" />
              <mxPoint x="208" y="55" />
            </Array>
          </mxGeometry>
        </mxCell>
        <mxCell id="DpIOakn2oPwRYrwLk3A_-17" value="&lt;font style=&quot;font-size: 18px;&quot;&gt;Logging And Security System&lt;/font&gt;" style="whiteSpace=wrap;html=1;" parent="DpIOakn2oPwRYrwLk3A_-13" vertex="1">
          <mxGeometry x="220" y="120" width="160" height="78.5" as="geometry" />
        </mxCell>
        <mxCell id="DpIOakn2oPwRYrwLk3A_-18" value="" style="html=1;rounded=1;curved=0;sourcePerimeterSpacing=0;targetPerimeterSpacing=0;startSize=6;endSize=6;noEdgeStyle=1;orthogonal=1;" parent="DpIOakn2oPwRYrwLk3A_-13" source="DpIOakn2oPwRYrwLk3A_-14" target="DpIOakn2oPwRYrwLk3A_-17" edge="1">
          <mxGeometry relative="1" as="geometry">
            <Array as="points">
              <mxPoint x="182" y="118.375" />
              <mxPoint x="208" y="159.25" />
            </Array>
          </mxGeometry>
        </mxCell>
        <mxCell id="DpIOakn2oPwRYrwLk3A_-19" value="&lt;font style=&quot;font-size: 18px;&quot;&gt;End&lt;/font&gt;" style="whiteSpace=wrap;html=1;" parent="DpIOakn2oPwRYrwLk3A_-13" vertex="1">
          <mxGeometry x="430" y="80.685" width="170" height="52.88" as="geometry" />
        </mxCell>
        <mxCell id="DpIOakn2oPwRYrwLk3A_-20" value="" style="html=1;rounded=1;curved=0;sourcePerimeterSpacing=0;targetPerimeterSpacing=0;startSize=6;endSize=6;noEdgeStyle=1;orthogonal=1;" parent="DpIOakn2oPwRYrwLk3A_-13" source="DpIOakn2oPwRYrwLk3A_-15" target="DpIOakn2oPwRYrwLk3A_-19" edge="1">
          <mxGeometry relative="1" as="geometry">
            <Array as="points">
              <mxPoint x="392" y="55" />
              <mxPoint x="418" y="96.405" />
            </Array>
          </mxGeometry>
        </mxCell>
        <mxCell id="DpIOakn2oPwRYrwLk3A_-21" value="" style="html=1;rounded=1;curved=0;sourcePerimeterSpacing=0;targetPerimeterSpacing=0;startSize=6;endSize=6;noEdgeStyle=1;orthogonal=1;" parent="DpIOakn2oPwRYrwLk3A_-13" source="DpIOakn2oPwRYrwLk3A_-17" target="DpIOakn2oPwRYrwLk3A_-19" edge="1">
          <mxGeometry relative="1" as="geometry">
            <Array as="points">
              <mxPoint x="392" y="159.25" />
              <mxPoint x="418" y="117.845" />
            </Array>
          </mxGeometry>
        </mxCell>
        <mxCell id="DpIOakn2oPwRYrwLk3A_-23" value="&lt;font style=&quot;font-size: 18px;&quot;&gt;Attendence Marking Procedure&lt;/font&gt;" style="text;html=1;align=center;verticalAlign=middle;resizable=0;points=[];autosize=1;strokeColor=none;fillColor=none;" parent="WIyWlLk6GJQsqaUBKTNV-1" vertex="1">
          <mxGeometry x="20" y="155" width="270" height="40" as="geometry" />
        </mxCell>
        <mxCell id="DpIOakn2oPwRYrwLk3A_-24" value="&lt;font style=&quot;font-size: 18px;&quot;&gt;Logging And Security System&lt;/font&gt;" style="text;html=1;align=center;verticalAlign=middle;resizable=0;points=[];autosize=1;strokeColor=none;fillColor=none;" parent="WIyWlLk6GJQsqaUBKTNV-1" vertex="1">
          <mxGeometry x="-760" y="440" width="260" height="40" as="geometry" />
        </mxCell>
        <mxCell id="DpIOakn2oPwRYrwLk3A_-30" style="edgeStyle=orthogonalEdgeStyle;rounded=0;orthogonalLoop=1;jettySize=auto;html=1;" parent="WIyWlLk6GJQsqaUBKTNV-1" source="DpIOakn2oPwRYrwLk3A_-28" target="WIyWlLk6GJQsqaUBKTNV-3" edge="1">
          <mxGeometry relative="1" as="geometry" />
        </mxCell>
        <mxCell id="DpIOakn2oPwRYrwLk3A_-31" value="Repeat The Whole Procedure" style="edgeLabel;html=1;align=center;verticalAlign=middle;resizable=0;points=[];" parent="DpIOakn2oPwRYrwLk3A_-30" vertex="1" connectable="0">
          <mxGeometry x="0.6585" y="1" relative="1" as="geometry">
            <mxPoint x="1" y="-53" as="offset" />
          </mxGeometry>
        </mxCell>
        <mxCell id="DpIOakn2oPwRYrwLk3A_-28" value="Repeat" style="rounded=1;whiteSpace=wrap;html=1;" parent="WIyWlLk6GJQsqaUBKTNV-1" vertex="1">
          <mxGeometry x="170" y="890" width="120" height="60" as="geometry" />
        </mxCell>
        <mxCell id="DpIOakn2oPwRYrwLk3A_-42" style="edgeStyle=orthogonalEdgeStyle;rounded=0;orthogonalLoop=1;jettySize=auto;html=1;entryX=0;entryY=0.5;entryDx=0;entryDy=0;" parent="WIyWlLk6GJQsqaUBKTNV-1" source="DpIOakn2oPwRYrwLk3A_-36" target="DpIOakn2oPwRYrwLk3A_-37" edge="1">
          <mxGeometry relative="1" as="geometry" />
        </mxCell>
        <mxCell id="DpIOakn2oPwRYrwLk3A_-36" value="The return status of each frame should be documented with Keyword of the event and Timestamp" style="rounded=1;whiteSpace=wrap;html=1;" parent="WIyWlLk6GJQsqaUBKTNV-1" vertex="1">
          <mxGeometry x="-760" y="510" width="150" height="100" as="geometry" />
        </mxCell>
        <mxCell id="DpIOakn2oPwRYrwLk3A_-43" style="edgeStyle=orthogonalEdgeStyle;rounded=0;orthogonalLoop=1;jettySize=auto;html=1;entryX=0.5;entryY=0;entryDx=0;entryDy=0;" parent="WIyWlLk6GJQsqaUBKTNV-1" source="DpIOakn2oPwRYrwLk3A_-37" target="DpIOakn2oPwRYrwLk3A_-38" edge="1">
          <mxGeometry relative="1" as="geometry" />
        </mxCell>
        <mxCell id="DpIOakn2oPwRYrwLk3A_-37" value="The log file is updated in real time" style="rounded=1;whiteSpace=wrap;html=1;" parent="WIyWlLk6GJQsqaUBKTNV-1" vertex="1">
          <mxGeometry x="-510" y="530" width="120" height="60" as="geometry" />
        </mxCell>
        <mxCell id="DpIOakn2oPwRYrwLk3A_-44" style="edgeStyle=orthogonalEdgeStyle;rounded=0;orthogonalLoop=1;jettySize=auto;html=1;entryX=0.5;entryY=0;entryDx=0;entryDy=0;" parent="WIyWlLk6GJQsqaUBKTNV-1" source="DpIOakn2oPwRYrwLk3A_-38" target="DpIOakn2oPwRYrwLk3A_-39" edge="1">
          <mxGeometry relative="1" as="geometry" />
        </mxCell>
        <mxCell id="DpIOakn2oPwRYrwLk3A_-38" value="The log file is read with its keywords and generate response" style="rounded=1;whiteSpace=wrap;html=1;" parent="WIyWlLk6GJQsqaUBKTNV-1" vertex="1">
          <mxGeometry x="-510" y="650" width="120" height="60" as="geometry" />
        </mxCell>
        <mxCell id="DpIOakn2oPwRYrwLk3A_-45" style="edgeStyle=orthogonalEdgeStyle;rounded=0;orthogonalLoop=1;jettySize=auto;html=1;entryX=0;entryY=0.5;entryDx=0;entryDy=0;" parent="WIyWlLk6GJQsqaUBKTNV-1" source="DpIOakn2oPwRYrwLk3A_-39" target="DpIOakn2oPwRYrwLk3A_-40" edge="1">
          <mxGeometry relative="1" as="geometry" />
        </mxCell>
        <mxCell id="DpIOakn2oPwRYrwLk3A_-47" value="No" style="edgeLabel;html=1;align=center;verticalAlign=middle;resizable=0;points=[];" parent="DpIOakn2oPwRYrwLk3A_-45" vertex="1" connectable="0">
          <mxGeometry x="-0.1224" relative="1" as="geometry">
            <mxPoint y="-15" as="offset" />
          </mxGeometry>
        </mxCell>
        <mxCell id="DpIOakn2oPwRYrwLk3A_-46" style="edgeStyle=orthogonalEdgeStyle;rounded=0;orthogonalLoop=1;jettySize=auto;html=1;entryX=0.5;entryY=0;entryDx=0;entryDy=0;" parent="WIyWlLk6GJQsqaUBKTNV-1" source="DpIOakn2oPwRYrwLk3A_-39" target="DpIOakn2oPwRYrwLk3A_-41" edge="1">
          <mxGeometry relative="1" as="geometry" />
        </mxCell>
        <mxCell id="DpIOakn2oPwRYrwLk3A_-48" value="Yes" style="edgeLabel;html=1;align=center;verticalAlign=middle;resizable=0;points=[];" parent="DpIOakn2oPwRYrwLk3A_-46" vertex="1" connectable="0">
          <mxGeometry x="-0.3143" y="-1" relative="1" as="geometry">
            <mxPoint x="21" as="offset" />
          </mxGeometry>
        </mxCell>
        <mxCell id="DpIOakn2oPwRYrwLk3A_-39" value="If valid user" style="rhombus;whiteSpace=wrap;html=1;" parent="WIyWlLk6GJQsqaUBKTNV-1" vertex="1">
          <mxGeometry x="-515" y="770" width="130" height="110" as="geometry" />
        </mxCell>
        <mxCell id="DpIOakn2oPwRYrwLk3A_-49" style="edgeStyle=orthogonalEdgeStyle;rounded=0;orthogonalLoop=1;jettySize=auto;html=1;entryX=1;entryY=0.5;entryDx=0;entryDy=0;" parent="WIyWlLk6GJQsqaUBKTNV-1" source="DpIOakn2oPwRYrwLk3A_-40" target="DpIOakn2oPwRYrwLk3A_-41" edge="1">
          <mxGeometry relative="1" as="geometry">
            <Array as="points">
              <mxPoint x="-190" y="990" />
            </Array>
          </mxGeometry>
        </mxCell>
        <mxCell id="DpIOakn2oPwRYrwLk3A_-40" value="Generate Alert to respective authorities" style="rounded=1;whiteSpace=wrap;html=1;" parent="WIyWlLk6GJQsqaUBKTNV-1" vertex="1">
          <mxGeometry x="-250" y="795" width="120" height="60" as="geometry" />
        </mxCell>
        <mxCell id="DpIOakn2oPwRYrwLk3A_-50" style="edgeStyle=orthogonalEdgeStyle;rounded=0;orthogonalLoop=1;jettySize=auto;html=1;entryX=0.5;entryY=1;entryDx=0;entryDy=0;" parent="WIyWlLk6GJQsqaUBKTNV-1" source="DpIOakn2oPwRYrwLk3A_-41" target="DpIOakn2oPwRYrwLk3A_-36" edge="1">
          <mxGeometry relative="1" as="geometry" />
        </mxCell>
        <mxCell id="DpIOakn2oPwRYrwLk3A_-51" value="Repeat The Whole Procedure" style="edgeLabel;html=1;align=center;verticalAlign=middle;resizable=0;points=[];" parent="DpIOakn2oPwRYrwLk3A_-50" vertex="1" connectable="0">
          <mxGeometry x="0.6592" y="2" relative="1" as="geometry">
            <mxPoint as="offset" />
          </mxGeometry>
        </mxCell>
        <mxCell id="DpIOakn2oPwRYrwLk3A_-41" value="Repeat" style="rounded=1;whiteSpace=wrap;html=1;" parent="WIyWlLk6GJQsqaUBKTNV-1" vertex="1">
          <mxGeometry x="-510" y="960" width="120" height="60" as="geometry" />
        </mxCell>
      </root>
    </mxGraphModel>
  </diagram>
</mxfile>
